<mxfile modified="2022-10-30T19:23:12.446Z" host="Electron" agent="5.0 (Windows NT 10.0; Win64; x64) AppleWebKit/537.36 (KHTML, like Gecko) draw.io/20.3.0 Chrome/104.0.5112.114 Electron/20.1.3 Safari/537.36" etag="eFk5xhe7lP5WIrYmy3q8" compressed="false" version="20.3.0" type="device">
  <diagram id="vnTp4HBJ34tJwULQH-kr" name="FTEs Required ">
    <mxGraphModel dx="782" dy="549" grid="1" gridSize="10" guides="1" tooltips="1" connect="1" arrows="1" fold="1" page="1" pageScale="1" pageWidth="827" pageHeight="1169" math="0" shadow="0">
      <root>
        <mxCell id="VBSujlCD2O7CP-LhrcUp-0" />
        <mxCell id="VBSujlCD2O7CP-LhrcUp-1" parent="VBSujlCD2O7CP-LhrcUp-0" />
        <UserObject label="" tooltip="ABOUT&#xa;&#xa;Takes about 9.1 persons to do a medium complexity system." id="VBSujlCD2O7CP-LhrcUp-2">
          <mxCell style="shape=image;html=1;verticalAlign=top;verticalLabelPosition=bottom;labelBackgroundColor=#ffffff;imageAspect=0;aspect=fixed;image=https://cdn1.iconfinder.com/data/icons/hawcons/32/699014-icon-28-information-128.png;shadow=0;dashed=0;fontFamily=Helvetica;fontSize=12;fontColor=#000000;align=center;strokeColor=#000000;fillColor=#505050;dashPattern=1 1;" parent="VBSujlCD2O7CP-LhrcUp-1" vertex="1">
            <mxGeometry x="660" y="620" width="20" height="20" as="geometry" />
          </mxCell>
        </UserObject>
        <mxCell id="VBSujlCD2O7CP-LhrcUp-6" value="Web Services Developers" style="rounded=1;whiteSpace=wrap;html=1;shadow=0;glass=0;comic=0;strokeColor=#B3B3B3;fillColor=none;fontSize=12;align=center;fontColor=#333333;recursiveResize=0;container=1;collapsible=0;" parent="VBSujlCD2O7CP-LhrcUp-1" vertex="1">
          <mxGeometry x="610" y="480" width="70" height="40" as="geometry" />
        </mxCell>
        <mxCell id="VBSujlCD2O7CP-LhrcUp-7" value="Test Automation Developers" style="rounded=1;whiteSpace=wrap;html=1;shadow=0;glass=0;comic=0;strokeColor=#B3B3B3;fillColor=none;fontSize=12;align=center;fontColor=#333333;recursiveResize=0;container=1;collapsible=0;" parent="VBSujlCD2O7CP-LhrcUp-1" vertex="1">
          <mxGeometry x="530" y="480" width="70" height="40" as="geometry" />
        </mxCell>
        <mxCell id="VBSujlCD2O7CP-LhrcUp-8" value="Deployment Developers" style="rounded=1;whiteSpace=wrap;html=1;shadow=0;glass=0;comic=0;strokeColor=#B3B3B3;fillColor=none;fontSize=12;align=center;fontColor=#333333;recursiveResize=0;container=1;collapsible=0;" parent="VBSujlCD2O7CP-LhrcUp-1" vertex="1">
          <mxGeometry x="450" y="480" width="70" height="40" as="geometry" />
        </mxCell>
        <mxCell id="VBSujlCD2O7CP-LhrcUp-9" value="Development Lead" style="rounded=1;whiteSpace=wrap;html=1;shadow=0;glass=0;comic=0;strokeColor=#B3B3B3;fillColor=none;fontSize=12;align=center;fontColor=#333333;recursiveResize=0;container=1;collapsible=0;" parent="VBSujlCD2O7CP-LhrcUp-1" vertex="1">
          <mxGeometry x="370" y="480" width="70" height="40" as="geometry" />
        </mxCell>
        <mxCell id="VBSujlCD2O7CP-LhrcUp-10" value="Solution Architect" style="rounded=1;whiteSpace=wrap;html=1;shadow=0;glass=0;comic=0;strokeColor=#B3B3B3;fillColor=none;fontSize=12;align=center;fontColor=#333333;recursiveResize=0;container=1;collapsible=0;" parent="VBSujlCD2O7CP-LhrcUp-1" vertex="1">
          <mxGeometry x="290" y="440" width="70" height="40" as="geometry" />
        </mxCell>
        <mxCell id="VBSujlCD2O7CP-LhrcUp-11" value="Security Specialist" style="rounded=1;whiteSpace=wrap;html=1;shadow=0;glass=0;comic=0;strokeColor=#B3B3B3;fillColor=none;fontSize=12;align=center;fontColor=#333333;recursiveResize=0;container=1;collapsible=0;" parent="VBSujlCD2O7CP-LhrcUp-1" vertex="1">
          <mxGeometry x="290" y="530" width="70" height="40" as="geometry" />
        </mxCell>
        <mxCell id="VBSujlCD2O7CP-LhrcUp-12" value="Accreditation&lt;br style=&quot;font-size: 12px;&quot;&gt;Specialist" style="rounded=1;whiteSpace=wrap;html=1;shadow=0;glass=0;comic=0;strokeColor=#B3B3B3;fillColor=none;fontSize=12;align=center;fontColor=#333333;recursiveResize=0;container=1;collapsible=0;" parent="VBSujlCD2O7CP-LhrcUp-1" vertex="1">
          <mxGeometry x="210" y="530" width="70" height="40" as="geometry" />
        </mxCell>
        <mxCell id="VBSujlCD2O7CP-LhrcUp-13" value="UX Lead" style="rounded=1;whiteSpace=wrap;html=1;shadow=0;glass=0;comic=0;strokeColor=#B3B3B3;fillColor=none;fontSize=12;align=center;fontColor=#333333;recursiveResize=0;container=1;collapsible=0;" parent="VBSujlCD2O7CP-LhrcUp-1" vertex="1">
          <mxGeometry x="370" y="390" width="70" height="40" as="geometry" />
        </mxCell>
        <mxCell id="VBSujlCD2O7CP-LhrcUp-14" value="Test Lead" style="rounded=1;whiteSpace=wrap;html=1;shadow=0;glass=0;comic=0;strokeColor=#B3B3B3;fillColor=none;fontSize=12;align=center;fontColor=#333333;recursiveResize=0;container=1;collapsible=0;" parent="VBSujlCD2O7CP-LhrcUp-1" vertex="1">
          <mxGeometry x="370" y="340" width="70" height="40" as="geometry" />
        </mxCell>
        <mxCell id="VBSujlCD2O7CP-LhrcUp-15" value="Lead BA" style="rounded=1;whiteSpace=wrap;html=1;shadow=0;glass=0;comic=0;strokeColor=#B3B3B3;fillColor=none;fontSize=12;align=center;fontColor=#333333;recursiveResize=0;container=1;collapsible=0;" parent="VBSujlCD2O7CP-LhrcUp-1" vertex="1">
          <mxGeometry x="370" y="290" width="70" height="40" as="geometry" />
        </mxCell>
        <mxCell id="VBSujlCD2O7CP-LhrcUp-16" value="Business Analysts" style="rounded=1;whiteSpace=wrap;html=1;shadow=0;glass=0;comic=0;strokeColor=#B3B3B3;fillColor=none;fontSize=12;align=center;fontColor=#333333;recursiveResize=0;container=1;collapsible=0;" parent="VBSujlCD2O7CP-LhrcUp-1" vertex="1">
          <mxGeometry x="450" y="290" width="70" height="40" as="geometry" />
        </mxCell>
        <mxCell id="VBSujlCD2O7CP-LhrcUp-17" value="Test Analysts" style="rounded=1;whiteSpace=wrap;html=1;shadow=0;glass=0;comic=0;strokeColor=#B3B3B3;fillColor=none;fontSize=12;align=center;fontColor=#333333;recursiveResize=0;container=1;collapsible=0;" parent="VBSujlCD2O7CP-LhrcUp-1" vertex="1">
          <mxGeometry x="450" y="340" width="70" height="40" as="geometry" />
        </mxCell>
        <mxCell id="VBSujlCD2O7CP-LhrcUp-18" value="Team Coordinator/&lt;br&gt;Scrum M&amp;nbsp;" style="rounded=1;whiteSpace=wrap;html=1;shadow=0;glass=0;comic=0;strokeColor=#B3B3B3;fillColor=none;fontSize=12;align=center;fontColor=#333333;recursiveResize=0;container=1;collapsible=0;" parent="VBSujlCD2O7CP-LhrcUp-1" vertex="1">
          <mxGeometry x="290" y="250" width="70" height="40" as="geometry" />
        </mxCell>
        <mxCell id="VBSujlCD2O7CP-LhrcUp-19" value="&lt;font style=&quot;font-size: 12px&quot;&gt;Project &lt;br&gt;Manager&lt;/font&gt;" style="rounded=1;whiteSpace=wrap;html=1;shadow=0;glass=0;comic=0;strokeColor=#B3B3B3;fillColor=none;fontSize=10;align=center;fontColor=#333333;recursiveResize=0;container=1;collapsible=0;" parent="VBSujlCD2O7CP-LhrcUp-1" vertex="1">
          <mxGeometry x="210" y="250" width="70" height="40" as="geometry" />
        </mxCell>
        <mxCell id="VBSujlCD2O7CP-LhrcUp-20" value="Comms Specialist" style="rounded=1;whiteSpace=wrap;html=1;shadow=0;glass=0;comic=0;strokeColor=#B3B3B3;fillColor=none;fontSize=12;align=center;fontColor=#333333;recursiveResize=0;container=1;collapsible=0;" parent="VBSujlCD2O7CP-LhrcUp-1" vertex="1">
          <mxGeometry x="290" y="200" width="70" height="40" as="geometry" />
        </mxCell>
        <mxCell id="VBSujlCD2O7CP-LhrcUp-21" value="Program Coordinator" style="rounded=1;whiteSpace=wrap;html=1;shadow=0;glass=0;comic=0;strokeColor=#B3B3B3;fillColor=none;fontSize=12;align=center;fontColor=#333333;recursiveResize=0;container=1;collapsible=0;" parent="VBSujlCD2O7CP-LhrcUp-1" vertex="1">
          <mxGeometry x="210" y="200" width="70" height="40" as="geometry" />
        </mxCell>
        <mxCell id="VBSujlCD2O7CP-LhrcUp-22" value="Program Manager" style="rounded=1;whiteSpace=wrap;html=1;shadow=0;glass=0;comic=0;strokeColor=#B3B3B3;fillColor=none;fontSize=12;align=center;fontColor=#333333;recursiveResize=0;container=1;collapsible=0;" parent="VBSujlCD2O7CP-LhrcUp-1" vertex="1">
          <mxGeometry x="130" y="200" width="70" height="40" as="geometry" />
        </mxCell>
        <mxCell id="VBSujlCD2O7CP-LhrcUp-23" value="0.4" style="rounded=1;fillColor=#0065FF;strokeColor=none;html=1;fontColor=#ffffff;align=center;verticalAlign=middle;whiteSpace=wrap;fontSize=18;fontStyle=1;arcSize=50;shadow=0;dashed=1;labelBackgroundColor=none;opacity=30;" parent="VBSujlCD2O7CP-LhrcUp-1" vertex="1">
          <mxGeometry x="210" y="280" width="40" height="25" as="geometry" />
        </mxCell>
        <mxCell id="VBSujlCD2O7CP-LhrcUp-24" value="0.6" style="rounded=1;fillColor=#0065FF;strokeColor=none;html=1;fontColor=#ffffff;align=center;verticalAlign=middle;whiteSpace=wrap;fontSize=18;fontStyle=1;arcSize=50;shadow=0;dashed=1;labelBackgroundColor=none;opacity=30;" parent="VBSujlCD2O7CP-LhrcUp-1" vertex="1">
          <mxGeometry x="280" y="280" width="40" height="25" as="geometry" />
        </mxCell>
        <mxCell id="VBSujlCD2O7CP-LhrcUp-25" value="0.4" style="rounded=1;fillColor=#0065FF;strokeColor=none;html=1;fontColor=#ffffff;align=center;verticalAlign=middle;whiteSpace=wrap;fontSize=18;fontStyle=1;arcSize=50;shadow=0;dashed=1;labelBackgroundColor=none;opacity=30;" parent="VBSujlCD2O7CP-LhrcUp-1" vertex="1">
          <mxGeometry x="360" y="315" width="40" height="25" as="geometry" />
        </mxCell>
        <mxCell id="VBSujlCD2O7CP-LhrcUp-26" value="0.6" style="rounded=1;fillColor=#0065FF;strokeColor=none;html=1;fontColor=#ffffff;align=center;verticalAlign=middle;whiteSpace=wrap;fontSize=18;fontStyle=1;arcSize=50;shadow=0;dashed=1;labelBackgroundColor=none;opacity=30;" parent="VBSujlCD2O7CP-LhrcUp-1" vertex="1">
          <mxGeometry x="440" y="315" width="40" height="25" as="geometry" />
        </mxCell>
        <mxCell id="VBSujlCD2O7CP-LhrcUp-27" value="0.4" style="rounded=1;fillColor=#0065FF;strokeColor=none;html=1;fontColor=#ffffff;align=center;verticalAlign=middle;whiteSpace=wrap;fontSize=18;fontStyle=1;arcSize=50;shadow=0;dashed=1;labelBackgroundColor=none;opacity=30;" parent="VBSujlCD2O7CP-LhrcUp-1" vertex="1">
          <mxGeometry x="360" y="365" width="40" height="25" as="geometry" />
        </mxCell>
        <mxCell id="VBSujlCD2O7CP-LhrcUp-28" value="0.6" style="rounded=1;fillColor=#0065FF;strokeColor=none;html=1;fontColor=#ffffff;align=center;verticalAlign=middle;whiteSpace=wrap;fontSize=18;fontStyle=1;arcSize=50;shadow=0;dashed=1;labelBackgroundColor=none;opacity=30;" parent="VBSujlCD2O7CP-LhrcUp-1" vertex="1">
          <mxGeometry x="360" y="505" width="40" height="25" as="geometry" />
        </mxCell>
        <mxCell id="VBSujlCD2O7CP-LhrcUp-29" value="0.5" style="rounded=1;fillColor=#0065FF;strokeColor=none;html=1;fontColor=#ffffff;align=center;verticalAlign=middle;whiteSpace=wrap;fontSize=18;fontStyle=1;arcSize=50;shadow=0;dashed=1;labelBackgroundColor=none;opacity=30;" parent="VBSujlCD2O7CP-LhrcUp-1" vertex="1">
          <mxGeometry x="280" y="465" width="40" height="25" as="geometry" />
        </mxCell>
        <mxCell id="VBSujlCD2O7CP-LhrcUp-30" value="0.6" style="rounded=1;fillColor=#0065FF;strokeColor=none;html=1;fontColor=#ffffff;align=center;verticalAlign=middle;whiteSpace=wrap;fontSize=18;fontStyle=1;arcSize=50;shadow=0;dashed=1;labelBackgroundColor=none;opacity=30;" parent="VBSujlCD2O7CP-LhrcUp-1" vertex="1">
          <mxGeometry x="440" y="507.5" width="40" height="25" as="geometry" />
        </mxCell>
        <mxCell id="VBSujlCD2O7CP-LhrcUp-31" value="2" style="rounded=1;fillColor=#0065FF;strokeColor=none;html=1;fontColor=#ffffff;align=center;verticalAlign=middle;whiteSpace=wrap;fontSize=18;fontStyle=1;arcSize=50;shadow=0;dashed=1;labelBackgroundColor=none;opacity=30;" parent="VBSujlCD2O7CP-LhrcUp-1" vertex="1">
          <mxGeometry x="600" y="502.5" width="40" height="25" as="geometry" />
        </mxCell>
        <mxCell id="VBSujlCD2O7CP-LhrcUp-32" value="1" style="rounded=1;fillColor=#0065FF;strokeColor=none;html=1;fontColor=#ffffff;align=center;verticalAlign=middle;whiteSpace=wrap;fontSize=18;fontStyle=1;arcSize=50;shadow=0;dashed=1;labelBackgroundColor=none;opacity=30;" parent="VBSujlCD2O7CP-LhrcUp-1" vertex="1">
          <mxGeometry x="520" y="505" width="40" height="25" as="geometry" />
        </mxCell>
        <mxCell id="VBSujlCD2O7CP-LhrcUp-33" value="0.2" style="rounded=1;fillColor=#0065FF;strokeColor=none;html=1;fontColor=#ffffff;align=center;verticalAlign=middle;whiteSpace=wrap;fontSize=18;fontStyle=1;arcSize=50;shadow=0;dashed=1;labelBackgroundColor=none;opacity=30;" parent="VBSujlCD2O7CP-LhrcUp-1" vertex="1">
          <mxGeometry x="210" y="552.5" width="40" height="25" as="geometry" />
        </mxCell>
        <mxCell id="VBSujlCD2O7CP-LhrcUp-34" value="0.2" style="rounded=1;fillColor=#0065FF;strokeColor=none;html=1;fontColor=#ffffff;align=center;verticalAlign=middle;whiteSpace=wrap;fontSize=18;fontStyle=1;arcSize=50;shadow=0;dashed=1;labelBackgroundColor=none;opacity=30;" parent="VBSujlCD2O7CP-LhrcUp-1" vertex="1">
          <mxGeometry x="280" y="225" width="40" height="25" as="geometry" />
        </mxCell>
        <mxCell id="VBSujlCD2O7CP-LhrcUp-35" value="0.4" style="rounded=1;fillColor=#0065FF;strokeColor=none;html=1;fontColor=#ffffff;align=center;verticalAlign=middle;whiteSpace=wrap;fontSize=18;fontStyle=1;arcSize=50;shadow=0;dashed=1;labelBackgroundColor=none;opacity=30;" parent="VBSujlCD2O7CP-LhrcUp-1" vertex="1">
          <mxGeometry x="360" y="415" width="40" height="25" as="geometry" />
        </mxCell>
        <mxCell id="VBSujlCD2O7CP-LhrcUp-36" value="0.2" style="rounded=1;fillColor=#0065FF;strokeColor=none;html=1;fontColor=#ffffff;align=center;verticalAlign=middle;whiteSpace=wrap;fontSize=18;fontStyle=1;arcSize=50;shadow=0;dashed=1;labelBackgroundColor=none;opacity=30;" parent="VBSujlCD2O7CP-LhrcUp-1" vertex="1">
          <mxGeometry x="200" y="225" width="40" height="25" as="geometry" />
        </mxCell>
        <mxCell id="VBSujlCD2O7CP-LhrcUp-37" value="0.2" style="rounded=1;fillColor=#0065FF;strokeColor=none;html=1;fontColor=#ffffff;align=center;verticalAlign=middle;whiteSpace=wrap;fontSize=18;fontStyle=1;arcSize=50;shadow=0;dashed=1;labelBackgroundColor=none;opacity=30;" parent="VBSujlCD2O7CP-LhrcUp-1" vertex="1">
          <mxGeometry x="280" y="559" width="40" height="25" as="geometry" />
        </mxCell>
        <mxCell id="VBSujlCD2O7CP-LhrcUp-38" value="0.6" style="rounded=1;fillColor=#0065FF;strokeColor=none;html=1;fontColor=#ffffff;align=center;verticalAlign=middle;whiteSpace=wrap;fontSize=18;fontStyle=1;arcSize=50;shadow=0;dashed=1;labelBackgroundColor=none;opacity=30;" parent="VBSujlCD2O7CP-LhrcUp-1" vertex="1">
          <mxGeometry x="440" y="370" width="40" height="25" as="geometry" />
        </mxCell>
        <mxCell id="VBSujlCD2O7CP-LhrcUp-39" value="0.2" style="rounded=1;fillColor=#0065FF;strokeColor=none;html=1;fontColor=#ffffff;align=center;verticalAlign=middle;whiteSpace=wrap;fontSize=18;fontStyle=1;arcSize=50;shadow=0;dashed=1;labelBackgroundColor=none;opacity=30;" parent="VBSujlCD2O7CP-LhrcUp-1" vertex="1">
          <mxGeometry x="110" y="230" width="40" height="25" as="geometry" />
        </mxCell>
        <mxCell id="VBSujlCD2O7CP-LhrcUp-40" value="&lt;font style=&quot;font-size: 12px ; font-weight: normal&quot;&gt;&lt;i&gt;Diagram: Delivery - Project Resources - Indicative&lt;/i&gt;&lt;/font&gt;" style="text;strokeColor=none;fillColor=none;html=1;fontSize=24;fontStyle=1;verticalAlign=middle;align=left;shadow=0;glass=0;comic=0;opacity=30;fontColor=#808080;" parent="VBSujlCD2O7CP-LhrcUp-1" vertex="1">
          <mxGeometry x="120" y="600" width="520" height="40" as="geometry" />
        </mxCell>
      </root>
    </mxGraphModel>
  </diagram>
</mxfile>
